# Tiled2Unity generated file. Do not modify by hand.
# Wavefront file for 'TileMap_mesh_0007.obj'

# Vertices (Count = 248)
v -233 -48 0
v -234 -48 0
v -234 -47 0
v -233 -47 0
v -234 -48 0
v -235 -48 0
v -235 -47 0
v -234 -47 0
v -226 -65 0
v -227 -65 0
v -227 -64 0
v -226 -64 0
v -227 -65 0
v -228 -65 0
v -228 -64 0
v -227 -64 0
v -228 -65 0
v -229 -65 0
v -229 -64 0
v -228 -64 0
v -229 -65 0
v -230 -65 0
v -230 -64 0
v -229 -64 0
v -230 -65 0
v -231 -65 0
v -231 -64 0
v -230 -64 0
v -231 -65 0
v -232 -65 0
v -232 -64 0
v -231 -64 0
v -232 -65 0
v -233 -65 0
v -233 -64 0
v -232 -64 0
v -233 -65 0
v -234 -65 0
v -234 -64 0
v -233 -64 0
v -234 -65 0
v -235 -65 0
v -235 -64 0
v -234 -64 0
v -235 -65 0
v -236 -65 0
v -236 -64 0
v -235 -64 0
v -236 -65 0
v -237 -65 0
v -237 -64 0
v -236 -64 0
v -237 -65 0
v -238 -65 0
v -238 -64 0
v -237 -64 0
v -225 -66 0
v -226 -66 0
v -226 -65 0
v -225 -65 0
v -226 -66 0
v -227 -66 0
v -227 -65 0
v -226 -65 0
v -227 -66 0
v -228 -66 0
v -228 -65 0
v -227 -65 0
v -228 -66 0
v -229 -66 0
v -229 -65 0
v -228 -65 0
v -229 -66 0
v -230 -66 0
v -230 -65 0
v -229 -65 0
v -230 -66 0
v -231 -66 0
v -231 -65 0
v -230 -65 0
v -231 -66 0
v -232 -66 0
v -232 -65 0
v -231 -65 0
v -232 -66 0
v -233 -66 0
v -233 -65 0
v -232 -65 0
v -233 -66 0
v -234 -66 0
v -234 -65 0
v -233 -65 0
v -234 -66 0
v -235 -66 0
v -235 -65 0
v -234 -65 0
v -235 -66 0
v -236 -66 0
v -236 -65 0
v -235 -65 0
v -236 -66 0
v -237 -66 0
v -237 -65 0
v -236 -65 0
v -237 -66 0
v -238 -66 0
v -238 -65 0
v -237 -65 0
v -238 -66 0
v -239 -66 0
v -239 -65 0
v -238 -65 0
v -225 -67 0
v -226 -67 0
v -226 -66 0
v -225 -66 0
v -226 -67 0
v -227 -67 0
v -227 -66 0
v -226 -66 0
v -227 -67 0
v -228 -67 0
v -228 -66 0
v -227 -66 0
v -228 -67 0
v -229 -67 0
v -229 -66 0
v -228 -66 0
v -229 -67 0
v -230 -67 0
v -230 -66 0
v -229 -66 0
v -230 -67 0
v -231 -67 0
v -231 -66 0
v -230 -66 0
v -231 -67 0
v -232 -67 0
v -232 -66 0
v -231 -66 0
v -232 -67 0
v -233 -67 0
v -233 -66 0
v -232 -66 0
v -233 -67 0
v -234 -67 0
v -234 -66 0
v -233 -66 0
v -234 -67 0
v -235 -67 0
v -235 -66 0
v -234 -66 0
v -235 -67 0
v -236 -67 0
v -236 -66 0
v -235 -66 0
v -236 -67 0
v -237 -67 0
v -237 -66 0
v -236 -66 0
v -237 -67 0
v -238 -67 0
v -238 -66 0
v -237 -66 0
v -238 -67 0
v -239 -67 0
v -239 -66 0
v -238 -66 0
v -309 -100 0
v -310 -100 0
v -310 -99 0
v -309 -99 0
v -310 -100 0
v -311 -100 0
v -311 -99 0
v -310 -99 0
v -311 -100 0
v -312 -100 0
v -312 -99 0
v -311 -99 0
v -312 -100 0
v -313 -100 0
v -313 -99 0
v -312 -99 0
v -313 -100 0
v -314 -100 0
v -314 -99 0
v -313 -99 0
v -314 -100 0
v -315 -100 0
v -315 -99 0
v -314 -99 0
v -315 -100 0
v -316 -100 0
v -316 -99 0
v -315 -99 0
v -316 -100 0
v -317 -100 0
v -317 -99 0
v -316 -99 0
v -317 -100 0
v -318 -100 0
v -318 -99 0
v -317 -99 0
v -318 -100 0
v -319 -100 0
v -319 -99 0
v -318 -99 0
v -309 -101 0
v -310 -101 0
v -310 -100 0
v -309 -100 0
v -310 -101 0
v -311 -101 0
v -311 -100 0
v -310 -100 0
v -311 -101 0
v -312 -101 0
v -312 -100 0
v -311 -100 0
v -312 -101 0
v -313 -101 0
v -313 -100 0
v -312 -100 0
v -313 -101 0
v -314 -101 0
v -314 -100 0
v -313 -100 0
v -314 -101 0
v -315 -101 0
v -315 -100 0
v -314 -100 0
v -315 -101 0
v -316 -101 0
v -316 -100 0
v -315 -100 0
v -316 -101 0
v -317 -101 0
v -317 -100 0
v -316 -100 0
v -317 -101 0
v -318 -101 0
v -318 -100 0
v -317 -100 0
v -318 -101 0
v -319 -101 0
v -319 -100 0
v -318 -100 0

# Texture cooridinates (Count = 6)
vt 0.625 0.75
vt 0.75 0.75
vt 0.75 0.875
vt 0.625 0.875
vt 0.625 0.625
vt 0.75 0.625

# Normal
vn 0 0 -1

# Mesh description
g TileMap_mesh_0007

# Faces
f 1/1/1 2/2/1 3/3/1 4/4/1
f 5/1/1 6/2/1 7/3/1 8/4/1
f 9/1/1 10/2/1 11/3/1 12/4/1
f 13/1/1 14/2/1 15/3/1 16/4/1
f 17/1/1 18/2/1 19/3/1 20/4/1
f 21/1/1 22/2/1 23/3/1 24/4/1
f 25/1/1 26/2/1 27/3/1 28/4/1
f 29/1/1 30/2/1 31/3/1 32/4/1
f 33/1/1 34/2/1 35/3/1 36/4/1
f 37/1/1 38/2/1 39/3/1 40/4/1
f 41/1/1 42/2/1 43/3/1 44/4/1
f 45/1/1 46/2/1 47/3/1 48/4/1
f 49/1/1 50/2/1 51/3/1 52/4/1
f 53/1/1 54/2/1 55/3/1 56/4/1
f 57/5/1 58/6/1 59/2/1 60/1/1
f 61/5/1 62/6/1 63/2/1 64/1/1
f 65/5/1 66/6/1 67/2/1 68/1/1
f 69/5/1 70/6/1 71/2/1 72/1/1
f 73/5/1 74/6/1 75/2/1 76/1/1
f 77/5/1 78/6/1 79/2/1 80/1/1
f 81/5/1 82/6/1 83/2/1 84/1/1
f 85/5/1 86/6/1 87/2/1 88/1/1
f 89/5/1 90/6/1 91/2/1 92/1/1
f 93/5/1 94/6/1 95/2/1 96/1/1
f 97/5/1 98/6/1 99/2/1 100/1/1
f 101/5/1 102/6/1 103/2/1 104/1/1
f 105/5/1 106/6/1 107/2/1 108/1/1
f 109/5/1 110/6/1 111/2/1 112/1/1
f 113/5/1 114/6/1 115/2/1 116/1/1
f 117/5/1 118/6/1 119/2/1 120/1/1
f 121/5/1 122/6/1 123/2/1 124/1/1
f 125/5/1 126/6/1 127/2/1 128/1/1
f 129/5/1 130/6/1 131/2/1 132/1/1
f 133/5/1 134/6/1 135/2/1 136/1/1
f 137/5/1 138/6/1 139/2/1 140/1/1
f 141/5/1 142/6/1 143/2/1 144/1/1
f 145/5/1 146/6/1 147/2/1 148/1/1
f 149/5/1 150/6/1 151/2/1 152/1/1
f 153/5/1 154/6/1 155/2/1 156/1/1
f 157/5/1 158/6/1 159/2/1 160/1/1
f 161/5/1 162/6/1 163/2/1 164/1/1
f 165/5/1 166/6/1 167/2/1 168/1/1
f 169/1/1 170/2/1 171/3/1 172/4/1
f 173/1/1 174/2/1 175/3/1 176/4/1
f 177/1/1 178/2/1 179/3/1 180/4/1
f 181/1/1 182/2/1 183/3/1 184/4/1
f 185/1/1 186/2/1 187/3/1 188/4/1
f 189/1/1 190/2/1 191/3/1 192/4/1
f 193/1/1 194/2/1 195/3/1 196/4/1
f 197/1/1 198/2/1 199/3/1 200/4/1
f 201/1/1 202/2/1 203/3/1 204/4/1
f 205/1/1 206/2/1 207/3/1 208/4/1
f 209/5/1 210/6/1 211/2/1 212/1/1
f 213/5/1 214/6/1 215/2/1 216/1/1
f 217/5/1 218/6/1 219/2/1 220/1/1
f 221/5/1 222/6/1 223/2/1 224/1/1
f 225/5/1 226/6/1 227/2/1 228/1/1
f 229/5/1 230/6/1 231/2/1 232/1/1
f 233/5/1 234/6/1 235/2/1 236/1/1
f 237/5/1 238/6/1 239/2/1 240/1/1
f 241/5/1 242/6/1 243/2/1 244/1/1
f 245/5/1 246/6/1 247/2/1 248/1/1

