# Tiled2Unity generated file. Do not modify by hand.
# Wavefront file for 'TileMap_mesh_0004.obj'

# Vertices (Count = 792)
v -92 -10 0
v -93 -10 0
v -93 -9 0
v -92 -9 0
v -93 -10 0
v -94 -10 0
v -94 -9 0
v -93 -9 0
v -81 -11 0
v -82 -11 0
v -82 -10 0
v -81 -10 0
v -82 -11 0
v -83 -11 0
v -83 -10 0
v -82 -10 0
v -83 -11 0
v -84 -11 0
v -84 -10 0
v -83 -10 0
v -84 -11 0
v -85 -11 0
v -85 -10 0
v -84 -10 0
v -85 -11 0
v -86 -11 0
v -86 -10 0
v -85 -10 0
v -86 -11 0
v -87 -11 0
v -87 -10 0
v -86 -10 0
v -87 -11 0
v -88 -11 0
v -88 -10 0
v -87 -10 0
v -88 -11 0
v -89 -11 0
v -89 -10 0
v -88 -10 0
v -89 -11 0
v -90 -11 0
v -90 -10 0
v -89 -10 0
v -90 -11 0
v -91 -11 0
v -91 -10 0
v -90 -10 0
v -91 -11 0
v -92 -11 0
v -92 -10 0
v -91 -10 0
v -92 -11 0
v -93 -11 0
v -93 -10 0
v -92 -10 0
v -93 -11 0
v -94 -11 0
v -94 -10 0
v -93 -10 0
v -94 -11 0
v -95 -11 0
v -95 -10 0
v -94 -10 0
v -95 -11 0
v -96 -11 0
v -96 -10 0
v -95 -10 0
v -96 -11 0
v -97 -11 0
v -97 -10 0
v -96 -10 0
v -97 -11 0
v -98 -11 0
v -98 -10 0
v -97 -10 0
v -98 -11 0
v -99 -11 0
v -99 -10 0
v -98 -10 0
v -99 -11 0
v -100 -11 0
v -100 -10 0
v -99 -10 0
v -100 -11 0
v -101 -11 0
v -101 -10 0
v -100 -10 0
v -101 -11 0
v -102 -11 0
v -102 -10 0
v -101 -10 0
v -102 -11 0
v -103 -11 0
v -103 -10 0
v -102 -10 0
v -103 -11 0
v -104 -11 0
v -104 -10 0
v -103 -10 0
v -104 -11 0
v -105 -11 0
v -105 -10 0
v -104 -10 0
v -91 -25 0
v -92 -25 0
v -92 -24 0
v -91 -24 0
v -92 -25 0
v -93 -25 0
v -93 -24 0
v -92 -24 0
v -197 -50 0
v -198 -50 0
v -198 -49 0
v -197 -49 0
v -198 -50 0
v -199 -50 0
v -199 -49 0
v -198 -49 0
v -199 -50 0
v -200 -50 0
v -200 -49 0
v -199 -49 0
v -200 -50 0
v -201 -50 0
v -201 -49 0
v -200 -49 0
v -201 -50 0
v -202 -50 0
v -202 -49 0
v -201 -49 0
v -202 -50 0
v -203 -50 0
v -203 -49 0
v -202 -49 0
v -203 -50 0
v -204 -50 0
v -204 -49 0
v -203 -49 0
v -204 -50 0
v -205 -50 0
v -205 -49 0
v -204 -49 0
v -205 -50 0
v -206 -50 0
v -206 -49 0
v -205 -49 0
v -206 -50 0
v -207 -50 0
v -207 -49 0
v -206 -49 0
v -244 -70 0
v -245 -70 0
v -245 -69 0
v -244 -69 0
v -245 -70 0
v -246 -70 0
v -246 -69 0
v -245 -69 0
v -246 -70 0
v -247 -70 0
v -247 -69 0
v -246 -69 0
v -247 -70 0
v -248 -70 0
v -248 -69 0
v -247 -69 0
v -248 -70 0
v -249 -70 0
v -249 -69 0
v -248 -69 0
v -254 -70 0
v -255 -70 0
v -255 -69 0
v -254 -69 0
v -255 -70 0
v -256 -70 0
v -256 -69 0
v -255 -69 0
v -256 -70 0
v -257 -70 0
v -257 -69 0
v -256 -69 0
v -257 -70 0
v -258 -70 0
v -258 -69 0
v -257 -69 0
v -258 -70 0
v -259 -70 0
v -259 -69 0
v -258 -69 0
v -259 -70 0
v -260 -70 0
v -260 -69 0
v -259 -69 0
v -260 -70 0
v -261 -70 0
v -261 -69 0
v -260 -69 0
v -286 -70 0
v -287 -70 0
v -287 -69 0
v -286 -69 0
v -287 -70 0
v -288 -70 0
v -288 -69 0
v -287 -69 0
v -288 -70 0
v -289 -70 0
v -289 -69 0
v -288 -69 0
v -289 -70 0
v -290 -70 0
v -290 -69 0
v -289 -69 0
v -290 -70 0
v -291 -70 0
v -291 -69 0
v -290 -69 0
v -291 -70 0
v -292 -70 0
v -292 -69 0
v -291 -69 0
v -292 -70 0
v -293 -70 0
v -293 -69 0
v -292 -69 0
v -293 -70 0
v -294 -70 0
v -294 -69 0
v -293 -69 0
v -294 -70 0
v -295 -70 0
v -295 -69 0
v -294 -69 0
v -295 -70 0
v -296 -70 0
v -296 -69 0
v -295 -69 0
v -244 -71 0
v -245 -71 0
v -245 -70 0
v -244 -70 0
v -245 -71 0
v -246 -71 0
v -246 -70 0
v -245 -70 0
v -246 -71 0
v -247 -71 0
v -247 -70 0
v -246 -70 0
v -247 -71 0
v -248 -71 0
v -248 -70 0
v -247 -70 0
v -248 -71 0
v -249 -71 0
v -249 -70 0
v -248 -70 0
v -258 -71 0
v -259 -71 0
v -259 -70 0
v -258 -70 0
v -259 -71 0
v -260 -71 0
v -260 -70 0
v -259 -70 0
v -260 -71 0
v -261 -71 0
v -261 -70 0
v -260 -70 0
v -262 -71 0
v -263 -71 0
v -263 -70 0
v -262 -70 0
v -263 -71 0
v -264 -71 0
v -264 -70 0
v -263 -70 0
v -264 -71 0
v -265 -71 0
v -265 -70 0
v -264 -70 0
v -268 -71 0
v -269 -71 0
v -269 -70 0
v -268 -70 0
v -275 -71 0
v -276 -71 0
v -276 -70 0
v -275 -70 0
v -276 -71 0
v -277 -71 0
v -277 -70 0
v -276 -70 0
v -277 -71 0
v -278 -71 0
v -278 -70 0
v -277 -70 0
v -278 -71 0
v -279 -71 0
v -279 -70 0
v -278 -70 0
v -279 -71 0
v -280 -71 0
v -280 -70 0
v -279 -70 0
v -280 -71 0
v -281 -71 0
v -281 -70 0
v -280 -70 0
v -281 -71 0
v -282 -71 0
v -282 -70 0
v -281 -70 0
v -282 -71 0
v -283 -71 0
v -283 -70 0
v -282 -70 0
v -283 -71 0
v -284 -71 0
v -284 -70 0
v -283 -70 0
v -284 -71 0
v -285 -71 0
v -285 -70 0
v -284 -70 0
v -262 -72 0
v -263 -72 0
v -263 -71 0
v -262 -71 0
v -263 -72 0
v -264 -72 0
v -264 -71 0
v -263 -71 0
v -270 -72 0
v -271 -72 0
v -271 -71 0
v -270 -71 0
v -271 -72 0
v -272 -72 0
v -272 -71 0
v -271 -71 0
v -272 -72 0
v -273 -72 0
v -273 -71 0
v -272 -71 0
v -244 -73 0
v -245 -73 0
v -245 -72 0
v -244 -72 0
v -245 -73 0
v -246 -73 0
v -246 -72 0
v -245 -72 0
v -246 -73 0
v -247 -73 0
v -247 -72 0
v -246 -72 0
v -100 -74 0
v -101 -74 0
v -101 -73 0
v -100 -73 0
v -101 -74 0
v -102 -74 0
v -102 -73 0
v -101 -73 0
v -102 -74 0
v -103 -74 0
v -103 -73 0
v -102 -73 0
v -103 -74 0
v -104 -74 0
v -104 -73 0
v -103 -73 0
v -104 -74 0
v -105 -74 0
v -105 -73 0
v -104 -73 0
v -105 -74 0
v -106 -74 0
v -106 -73 0
v -105 -73 0
v -106 -74 0
v -107 -74 0
v -107 -73 0
v -106 -73 0
v -107 -74 0
v -108 -74 0
v -108 -73 0
v -107 -73 0
v -108 -74 0
v -109 -74 0
v -109 -73 0
v -108 -73 0
v -109 -74 0
v -110 -74 0
v -110 -73 0
v -109 -73 0
v -110 -74 0
v -111 -74 0
v -111 -73 0
v -110 -73 0
v -111 -74 0
v -112 -74 0
v -112 -73 0
v -111 -73 0
v -112 -74 0
v -113 -74 0
v -113 -73 0
v -112 -73 0
v -113 -74 0
v -114 -74 0
v -114 -73 0
v -113 -73 0
v -114 -74 0
v -115 -74 0
v -115 -73 0
v -114 -73 0
v -115 -74 0
v -116 -74 0
v -116 -73 0
v -115 -73 0
v -116 -74 0
v -117 -74 0
v -117 -73 0
v -116 -73 0
v -117 -74 0
v -118 -74 0
v -118 -73 0
v -117 -73 0
v -118 -74 0
v -119 -74 0
v -119 -73 0
v -118 -73 0
v -119 -74 0
v -120 -74 0
v -120 -73 0
v -119 -73 0
v -120 -74 0
v -121 -74 0
v -121 -73 0
v -120 -73 0
v -121 -74 0
v -122 -74 0
v -122 -73 0
v -121 -73 0
v -126 -74 0
v -127 -74 0
v -127 -73 0
v -126 -73 0
v -248 -74 0
v -249 -74 0
v -249 -73 0
v -248 -73 0
v -270 -75 0
v -271 -75 0
v -271 -74 0
v -270 -74 0
v -242 -77 0
v -243 -77 0
v -243 -76 0
v -242 -76 0
v -273 -78 0
v -274 -78 0
v -274 -77 0
v -273 -77 0
v -243 -79 0
v -244 -79 0
v -244 -78 0
v -243 -78 0
v -253 -79 0
v -254 -79 0
v -254 -78 0
v -253 -78 0
v -254 -79 0
v -255 -79 0
v -255 -78 0
v -254 -78 0
v -255 -79 0
v -256 -79 0
v -256 -78 0
v -255 -78 0
v -256 -79 0
v -257 -79 0
v -257 -78 0
v -256 -78 0
v -257 -79 0
v -258 -79 0
v -258 -78 0
v -257 -78 0
v -258 -79 0
v -259 -79 0
v -259 -78 0
v -258 -78 0
v -259 -79 0
v -260 -79 0
v -260 -78 0
v -259 -78 0
v -260 -79 0
v -261 -79 0
v -261 -78 0
v -260 -78 0
v -253 -80 0
v -254 -80 0
v -254 -79 0
v -253 -79 0
v -254 -80 0
v -255 -80 0
v -255 -79 0
v -254 -79 0
v -255 -80 0
v -256 -80 0
v -256 -79 0
v -255 -79 0
v -256 -80 0
v -257 -80 0
v -257 -79 0
v -256 -79 0
v -293 -80 0
v -294 -80 0
v -294 -79 0
v -293 -79 0
v -294 -80 0
v -295 -80 0
v -295 -79 0
v -294 -79 0
v -295 -80 0
v -296 -80 0
v -296 -79 0
v -295 -79 0
v -244 -81 0
v -245 -81 0
v -245 -80 0
v -244 -80 0
v -249 -82 0
v -250 -82 0
v -250 -81 0
v -249 -81 0
v -250 -82 0
v -251 -82 0
v -251 -81 0
v -250 -81 0
v -251 -82 0
v -252 -82 0
v -252 -81 0
v -251 -81 0
v -252 -82 0
v -253 -82 0
v -253 -81 0
v -252 -81 0
v -253 -82 0
v -254 -82 0
v -254 -81 0
v -253 -81 0
v -254 -82 0
v -255 -82 0
v -255 -81 0
v -254 -81 0
v -255 -82 0
v -256 -82 0
v -256 -81 0
v -255 -81 0
v -256 -82 0
v -257 -82 0
v -257 -81 0
v -256 -81 0
v -267 -82 0
v -268 -82 0
v -268 -81 0
v -267 -81 0
v -268 -82 0
v -269 -82 0
v -269 -81 0
v -268 -81 0
v -277 -82 0
v -278 -82 0
v -278 -81 0
v -277 -81 0
v -278 -82 0
v -279 -82 0
v -279 -81 0
v -278 -81 0
v -279 -82 0
v -280 -82 0
v -280 -81 0
v -279 -81 0
v -280 -82 0
v -281 -82 0
v -281 -81 0
v -280 -81 0
v -245 -83 0
v -246 -83 0
v -246 -82 0
v -245 -82 0
v -267 -84 0
v -268 -84 0
v -268 -83 0
v -267 -83 0
v -268 -84 0
v -269 -84 0
v -269 -83 0
v -268 -83 0
v -269 -84 0
v -270 -84 0
v -270 -83 0
v -269 -83 0
v -270 -84 0
v -271 -84 0
v -271 -83 0
v -270 -83 0
v -271 -84 0
v -272 -84 0
v -272 -83 0
v -271 -83 0
v -272 -84 0
v -273 -84 0
v -273 -83 0
v -272 -83 0
v -273 -84 0
v -274 -84 0
v -274 -83 0
v -273 -83 0
v -274 -84 0
v -275 -84 0
v -275 -83 0
v -274 -83 0
v -277 -84 0
v -278 -84 0
v -278 -83 0
v -277 -83 0
v -278 -84 0
v -279 -84 0
v -279 -83 0
v -278 -83 0
v -279 -84 0
v -280 -84 0
v -280 -83 0
v -279 -83 0
v -280 -84 0
v -281 -84 0
v -281 -83 0
v -280 -83 0
v -281 -84 0
v -282 -84 0
v -282 -83 0
v -281 -83 0
v -282 -84 0
v -283 -84 0
v -283 -83 0
v -282 -83 0
v -283 -84 0
v -284 -84 0
v -284 -83 0
v -283 -83 0
v -284 -84 0
v -285 -84 0
v -285 -83 0
v -284 -83 0
v -285 -84 0
v -286 -84 0
v -286 -83 0
v -285 -83 0
v -286 -84 0
v -287 -84 0
v -287 -83 0
v -286 -83 0
v -287 -84 0
v -288 -84 0
v -288 -83 0
v -287 -83 0
v -288 -84 0
v -289 -84 0
v -289 -83 0
v -288 -83 0
v -289 -84 0
v -290 -84 0
v -290 -83 0
v -289 -83 0
v -251 -87 0
v -252 -87 0
v -252 -86 0
v -251 -86 0
v -252 -87 0
v -253 -87 0
v -253 -86 0
v -252 -86 0
v -214 -88 0
v -215 -88 0
v -215 -87 0
v -214 -87 0
v -215 -88 0
v -216 -88 0
v -216 -87 0
v -215 -87 0
v -216 -88 0
v -217 -88 0
v -217 -87 0
v -216 -87 0
v -217 -88 0
v -218 -88 0
v -218 -87 0
v -217 -87 0
v -307 -88 0
v -308 -88 0
v -308 -87 0
v -307 -87 0
v -308 -88 0
v -309 -88 0
v -309 -87 0
v -308 -87 0
v -309 -88 0
v -310 -88 0
v -310 -87 0
v -309 -87 0
v -310 -88 0
v -311 -88 0
v -311 -87 0
v -310 -87 0
v -307 -90 0
v -308 -90 0
v -308 -89 0
v -307 -89 0
v -308 -90 0
v -309 -90 0
v -309 -89 0
v -308 -89 0
v -309 -90 0
v -310 -90 0
v -310 -89 0
v -309 -89 0
v -310 -90 0
v -311 -90 0
v -311 -89 0
v -310 -89 0
v -311 -93 0
v -312 -93 0
v -312 -92 0
v -311 -92 0
v -312 -93 0
v -313 -93 0
v -313 -92 0
v -312 -92 0
v -313 -93 0
v -314 -93 0
v -314 -92 0
v -313 -92 0
v -311 -94 0
v -312 -94 0
v -312 -93 0
v -311 -93 0
v -312 -94 0
v -313 -94 0
v -313 -93 0
v -312 -93 0
v -313 -94 0
v -314 -94 0
v -314 -93 0
v -313 -93 0
v -95 -96 0
v -96 -96 0
v -96 -95 0
v -95 -95 0
v -96 -96 0
v -97 -96 0
v -97 -95 0
v -96 -95 0
v -97 -96 0
v -98 -96 0
v -98 -95 0
v -97 -95 0
v -98 -96 0
v -99 -96 0
v -99 -95 0
v -98 -95 0
v -214 -101 0
v -215 -101 0
v -215 -100 0
v -214 -100 0
v -215 -101 0
v -216 -101 0
v -216 -100 0
v -215 -100 0
v -216 -101 0
v -217 -101 0
v -217 -100 0
v -216 -100 0
v -217 -101 0
v -218 -101 0
v -218 -100 0
v -217 -100 0

# Texture cooridinates (Count = 6)
vt 0.375 0.5
vt 0.5 0.5
vt 0.5 0.625
vt 0.375 0.625
vt 0.25 0.5
vt 0.25 0.625

# Normal
vn 0 0 -1

# Mesh description
g TileMap_mesh_0004

# Faces
f 1/1/1 2/2/1 3/3/1 4/4/1
f 5/1/1 6/2/1 7/3/1 8/4/1
f 9/5/1 10/1/1 11/4/1 12/6/1
f 13/5/1 14/1/1 15/4/1 16/6/1
f 17/5/1 18/1/1 19/4/1 20/6/1
f 21/5/1 22/1/1 23/4/1 24/6/1
f 25/5/1 26/1/1 27/4/1 28/6/1
f 29/5/1 30/1/1 31/4/1 32/6/1
f 33/5/1 34/1/1 35/4/1 36/6/1
f 37/5/1 38/1/1 39/4/1 40/6/1
f 41/5/1 42/1/1 43/4/1 44/6/1
f 45/5/1 46/1/1 47/4/1 48/6/1
f 49/5/1 50/1/1 51/4/1 52/6/1
f 53/5/1 54/1/1 55/4/1 56/6/1
f 57/5/1 58/1/1 59/4/1 60/6/1
f 61/5/1 62/1/1 63/4/1 64/6/1
f 65/5/1 66/1/1 67/4/1 68/6/1
f 69/5/1 70/1/1 71/4/1 72/6/1
f 73/5/1 74/1/1 75/4/1 76/6/1
f 77/5/1 78/1/1 79/4/1 80/6/1
f 81/5/1 82/1/1 83/4/1 84/6/1
f 85/5/1 86/1/1 87/4/1 88/6/1
f 89/5/1 90/1/1 91/4/1 92/6/1
f 93/5/1 94/1/1 95/4/1 96/6/1
f 97/5/1 98/1/1 99/4/1 100/6/1
f 101/5/1 102/1/1 103/4/1 104/6/1
f 105/1/1 106/2/1 107/3/1 108/4/1
f 109/1/1 110/2/1 111/3/1 112/4/1
f 113/5/1 114/1/1 115/4/1 116/6/1
f 117/5/1 118/1/1 119/4/1 120/6/1
f 121/5/1 122/1/1 123/4/1 124/6/1
f 125/5/1 126/1/1 127/4/1 128/6/1
f 129/5/1 130/1/1 131/4/1 132/6/1
f 133/5/1 134/1/1 135/4/1 136/6/1
f 137/5/1 138/1/1 139/4/1 140/6/1
f 141/5/1 142/1/1 143/4/1 144/6/1
f 145/5/1 146/1/1 147/4/1 148/6/1
f 149/5/1 150/1/1 151/4/1 152/6/1
f 153/1/1 154/2/1 155/3/1 156/4/1
f 157/1/1 158/2/1 159/3/1 160/4/1
f 161/1/1 162/2/1 163/3/1 164/4/1
f 165/1/1 166/2/1 167/3/1 168/4/1
f 169/1/1 170/2/1 171/3/1 172/4/1
f 173/1/1 174/2/1 175/3/1 176/4/1
f 177/1/1 178/2/1 179/3/1 180/4/1
f 181/1/1 182/2/1 183/3/1 184/4/1
f 185/1/1 186/2/1 187/3/1 188/4/1
f 189/1/1 190/2/1 191/3/1 192/4/1
f 193/1/1 194/2/1 195/3/1 196/4/1
f 197/1/1 198/2/1 199/3/1 200/4/1
f 201/1/1 202/2/1 203/3/1 204/4/1
f 205/1/1 206/2/1 207/3/1 208/4/1
f 209/1/1 210/2/1 211/3/1 212/4/1
f 213/1/1 214/2/1 215/3/1 216/4/1
f 217/1/1 218/2/1 219/3/1 220/4/1
f 221/1/1 222/2/1 223/3/1 224/4/1
f 225/1/1 226/2/1 227/3/1 228/4/1
f 229/1/1 230/2/1 231/3/1 232/4/1
f 233/1/1 234/2/1 235/3/1 236/4/1
f 237/1/1 238/2/1 239/3/1 240/4/1
f 241/5/1 242/1/1 243/4/1 244/6/1
f 245/5/1 246/1/1 247/4/1 248/6/1
f 249/5/1 250/1/1 251/4/1 252/6/1
f 253/5/1 254/1/1 255/4/1 256/6/1
f 257/5/1 258/1/1 259/4/1 260/6/1
f 261/5/1 262/1/1 263/4/1 264/6/1
f 265/5/1 266/1/1 267/4/1 268/6/1
f 269/5/1 270/1/1 271/4/1 272/6/1
f 273/1/1 274/2/1 275/3/1 276/4/1
f 277/1/1 278/2/1 279/3/1 280/4/1
f 281/1/1 282/2/1 283/3/1 284/4/1
f 285/1/1 286/2/1 287/3/1 288/4/1
f 289/1/1 290/2/1 291/3/1 292/4/1
f 293/1/1 294/2/1 295/3/1 296/4/1
f 297/1/1 298/2/1 299/3/1 300/4/1
f 301/1/1 302/2/1 303/3/1 304/4/1
f 305/1/1 306/2/1 307/3/1 308/4/1
f 309/1/1 310/2/1 311/3/1 312/4/1
f 313/1/1 314/2/1 315/3/1 316/4/1
f 317/1/1 318/2/1 319/3/1 320/4/1
f 321/1/1 322/2/1 323/3/1 324/4/1
f 325/1/1 326/2/1 327/3/1 328/4/1
f 329/5/1 330/1/1 331/4/1 332/6/1
f 333/5/1 334/1/1 335/4/1 336/6/1
f 337/1/1 338/2/1 339/3/1 340/4/1
f 341/1/1 342/2/1 343/3/1 344/4/1
f 345/1/1 346/2/1 347/3/1 348/4/1
f 349/1/1 350/2/1 351/3/1 352/4/1
f 353/1/1 354/2/1 355/3/1 356/4/1
f 357/1/1 358/2/1 359/3/1 360/4/1
f 361/1/1 362/2/1 363/3/1 364/4/1
f 365/1/1 366/2/1 367/3/1 368/4/1
f 369/1/1 370/2/1 371/3/1 372/4/1
f 373/1/1 374/2/1 375/3/1 376/4/1
f 377/1/1 378/2/1 379/3/1 380/4/1
f 381/1/1 382/2/1 383/3/1 384/4/1
f 385/1/1 386/2/1 387/3/1 388/4/1
f 389/1/1 390/2/1 391/3/1 392/4/1
f 393/1/1 394/2/1 395/3/1 396/4/1
f 397/1/1 398/2/1 399/3/1 400/4/1
f 401/1/1 402/2/1 403/3/1 404/4/1
f 405/1/1 406/2/1 407/3/1 408/4/1
f 409/1/1 410/2/1 411/3/1 412/4/1
f 413/1/1 414/2/1 415/3/1 416/4/1
f 417/1/1 418/2/1 419/3/1 420/4/1
f 421/1/1 422/2/1 423/3/1 424/4/1
f 425/1/1 426/2/1 427/3/1 428/4/1
f 429/1/1 430/2/1 431/3/1 432/4/1
f 433/1/1 434/2/1 435/3/1 436/4/1
f 437/1/1 438/2/1 439/3/1 440/4/1
f 441/1/1 442/2/1 443/3/1 444/4/1
f 445/1/1 446/2/1 447/3/1 448/4/1
f 449/1/1 450/2/1 451/3/1 452/4/1
f 453/1/1 454/2/1 455/3/1 456/4/1
f 457/5/1 458/1/1 459/4/1 460/6/1
f 461/5/1 462/1/1 463/4/1 464/6/1
f 465/5/1 466/1/1 467/4/1 468/6/1
f 469/5/1 470/1/1 471/4/1 472/6/1
f 473/1/1 474/2/1 475/3/1 476/4/1
f 477/1/1 478/2/1 479/3/1 480/4/1
f 481/1/1 482/2/1 483/3/1 484/4/1
f 485/1/1 486/2/1 487/3/1 488/4/1
f 489/1/1 490/2/1 491/3/1 492/4/1
f 493/1/1 494/2/1 495/3/1 496/4/1
f 497/1/1 498/2/1 499/3/1 500/4/1
f 501/1/1 502/2/1 503/3/1 504/4/1
f 505/5/1 506/1/1 507/4/1 508/6/1
f 509/5/1 510/1/1 511/4/1 512/6/1
f 513/5/1 514/1/1 515/4/1 516/6/1
f 517/5/1 518/1/1 519/4/1 520/6/1
f 521/5/1 522/1/1 523/4/1 524/6/1
f 525/5/1 526/1/1 527/4/1 528/6/1
f 529/5/1 530/1/1 531/4/1 532/6/1
f 533/5/1 534/1/1 535/4/1 536/6/1
f 537/1/1 538/2/1 539/3/1 540/4/1
f 541/1/1 542/2/1 543/3/1 544/4/1
f 545/1/1 546/2/1 547/3/1 548/4/1
f 549/1/1 550/2/1 551/3/1 552/4/1
f 553/1/1 554/2/1 555/3/1 556/4/1
f 557/1/1 558/2/1 559/3/1 560/4/1
f 561/1/1 562/2/1 563/3/1 564/4/1
f 565/1/1 566/2/1 567/3/1 568/4/1
f 569/1/1 570/2/1 571/3/1 572/4/1
f 573/1/1 574/2/1 575/3/1 576/4/1
f 577/1/1 578/2/1 579/3/1 580/4/1
f 581/1/1 582/2/1 583/3/1 584/4/1
f 585/1/1 586/2/1 587/3/1 588/4/1
f 589/1/1 590/2/1 591/3/1 592/4/1
f 593/5/1 594/1/1 595/4/1 596/6/1
f 597/5/1 598/1/1 599/4/1 600/6/1
f 601/5/1 602/1/1 603/4/1 604/6/1
f 605/5/1 606/1/1 607/4/1 608/6/1
f 609/5/1 610/1/1 611/4/1 612/6/1
f 613/5/1 614/1/1 615/4/1 616/6/1
f 617/5/1 618/1/1 619/4/1 620/6/1
f 621/5/1 622/1/1 623/4/1 624/6/1
f 625/5/1 626/1/1 627/4/1 628/6/1
f 629/5/1 630/1/1 631/4/1 632/6/1
f 633/5/1 634/1/1 635/4/1 636/6/1
f 637/5/1 638/1/1 639/4/1 640/6/1
f 641/5/1 642/1/1 643/4/1 644/6/1
f 645/5/1 646/1/1 647/4/1 648/6/1
f 649/5/1 650/1/1 651/4/1 652/6/1
f 653/5/1 654/1/1 655/4/1 656/6/1
f 657/5/1 658/1/1 659/4/1 660/6/1
f 661/5/1 662/1/1 663/4/1 664/6/1
f 665/5/1 666/1/1 667/4/1 668/6/1
f 669/5/1 670/1/1 671/4/1 672/6/1
f 673/5/1 674/1/1 675/4/1 676/6/1
f 677/5/1 678/1/1 679/4/1 680/6/1
f 681/1/1 682/2/1 683/3/1 684/4/1
f 685/1/1 686/2/1 687/3/1 688/4/1
f 689/1/1 690/2/1 691/3/1 692/4/1
f 693/1/1 694/2/1 695/3/1 696/4/1
f 697/1/1 698/2/1 699/3/1 700/4/1
f 701/1/1 702/2/1 703/3/1 704/4/1
f 705/1/1 706/2/1 707/3/1 708/4/1
f 709/1/1 710/2/1 711/3/1 712/4/1
f 713/1/1 714/2/1 715/3/1 716/4/1
f 717/1/1 718/2/1 719/3/1 720/4/1
f 721/5/1 722/1/1 723/4/1 724/6/1
f 725/5/1 726/1/1 727/4/1 728/6/1
f 729/5/1 730/1/1 731/4/1 732/6/1
f 733/5/1 734/1/1 735/4/1 736/6/1
f 737/1/1 738/2/1 739/3/1 740/4/1
f 741/1/1 742/2/1 743/3/1 744/4/1
f 745/1/1 746/2/1 747/3/1 748/4/1
f 749/5/1 750/1/1 751/4/1 752/6/1
f 753/5/1 754/1/1 755/4/1 756/6/1
f 757/5/1 758/1/1 759/4/1 760/6/1
f 761/1/1 762/2/1 763/3/1 764/4/1
f 765/1/1 766/2/1 767/3/1 768/4/1
f 769/1/1 770/2/1 771/3/1 772/4/1
f 773/1/1 774/2/1 775/3/1 776/4/1
f 777/5/1 778/1/1 779/4/1 780/6/1
f 781/5/1 782/1/1 783/4/1 784/6/1
f 785/5/1 786/1/1 787/4/1 788/6/1
f 789/5/1 790/1/1 791/4/1 792/6/1

